<svg width="89" height="24" viewBox="0 0 89 24" fill="none" xmlns="http://www.w3.org/2000/svg">
<rect width="74" height="17" transform="translate(14.7734 3.25195)" fill="#D87757"/>
<path d="M20.9734 15.252L19.1634 9.75195H20.4434L21.4934 13.092C21.5534 13.292 21.6101 13.4986 21.6634 13.712C21.7234 13.9253 21.7668 14.0953 21.7934 14.222C21.8268 14.0953 21.8701 13.9253 21.9234 13.712C21.9768 13.4986 22.0301 13.2953 22.0834 13.102L23.1134 9.75195H24.3834L22.5834 15.252H20.9734ZM25.5295 15.252V14.112H27.4495V10.882H25.7795V9.75195H28.6495V14.112H30.3495V15.252H25.5295ZM27.9495 8.83195C27.6962 8.83195 27.4962 8.76862 27.3495 8.64195C27.2029 8.50862 27.1295 8.33195 27.1295 8.11195C27.1295 7.89195 27.2029 7.71862 27.3495 7.59195C27.4962 7.45862 27.6962 7.39195 27.9495 7.39195C28.2029 7.39195 28.4029 7.45862 28.5495 7.59195C28.6962 7.71862 28.7695 7.89195 28.7695 8.11195C28.7695 8.33195 28.6962 8.50862 28.5495 8.64195C28.4029 8.76862 28.2029 8.83195 27.9495 8.83195ZM34.2356 15.352C33.7823 15.352 33.4223 15.2253 33.1556 14.972C32.889 14.712 32.7556 14.3586 32.7556 13.912L33.0356 14.202H32.7556V15.252H31.5356V7.95195H32.7856V9.49195L32.7456 10.802H33.0356L32.7556 11.092C32.7556 10.6453 32.889 10.2953 33.1556 10.042C33.4223 9.78195 33.7823 9.65195 34.2356 9.65195C34.789 9.65195 35.2323 9.84195 35.5656 10.222C35.899 10.602 36.0656 11.1153 36.0656 11.762V13.252C36.0656 13.892 35.899 14.402 35.5656 14.782C35.2323 15.162 34.789 15.352 34.2356 15.352ZM33.7956 14.272C34.1156 14.272 34.3656 14.1786 34.5456 13.992C34.7256 13.8053 34.8156 13.5386 34.8156 13.192V11.812C34.8156 11.4653 34.7256 11.1986 34.5456 11.012C34.3656 10.8253 34.1156 10.732 33.7956 10.732C33.4823 10.732 33.2356 10.8286 33.0556 11.022C32.8756 11.2086 32.7856 11.472 32.7856 11.812V13.192C32.7856 13.532 32.8756 13.7986 33.0556 13.992C33.2356 14.1786 33.4823 14.272 33.7956 14.272ZM39.7717 15.352C39.3051 15.352 38.8984 15.262 38.5517 15.082C38.2051 14.902 37.9351 14.652 37.7417 14.332C37.5551 14.0053 37.4617 13.6253 37.4617 13.192V11.812C37.4617 11.3786 37.5551 11.002 37.7417 10.682C37.9351 10.3553 38.2051 10.102 38.5517 9.92195C38.8984 9.74195 39.3051 9.65195 39.7717 9.65195C40.2317 9.65195 40.6317 9.74195 40.9717 9.92195C41.3184 10.102 41.5851 10.3553 41.7717 10.682C41.9651 11.002 42.0617 11.3786 42.0617 11.812V12.802H38.6717V13.192C38.6717 13.5786 38.7651 13.872 38.9517 14.072C39.1384 14.2653 39.4151 14.362 39.7817 14.362C40.0617 14.362 40.2884 14.3153 40.4617 14.222C40.6351 14.122 40.7451 13.9786 40.7917 13.792H42.0217C41.9284 14.2653 41.6751 14.6453 41.2617 14.932C40.8551 15.212 40.3584 15.352 39.7717 15.352ZM40.8517 12.102V11.802C40.8517 11.422 40.7617 11.132 40.5817 10.932C40.4017 10.7253 40.1317 10.622 39.7717 10.622C39.4117 10.622 39.1384 10.7253 38.9517 10.932C38.7651 11.1386 38.6717 11.432 38.6717 11.812V12.022L40.9417 12.002L40.8517 12.102ZM44.1578 12.532V11.372H47.3578V12.532H44.1578ZM51.7839 15.352C51.3172 15.352 50.9072 15.2653 50.5539 15.092C50.2072 14.912 49.9372 14.662 49.7439 14.342C49.5506 14.0153 49.4539 13.632 49.4539 13.192V11.812C49.4539 11.3653 49.5506 10.982 49.7439 10.662C49.9372 10.342 50.2072 10.0953 50.5539 9.92195C50.9072 9.74195 51.3172 9.65195 51.7839 9.65195C52.4772 9.65195 53.0306 9.83195 53.4439 10.192C53.8572 10.5453 54.0739 11.0286 54.0939 11.642H52.8439C52.8239 11.3553 52.7206 11.1353 52.5339 10.982C52.3539 10.822 52.1039 10.742 51.7839 10.742C51.4506 10.742 51.1872 10.8353 50.9939 11.022C50.8006 11.202 50.7039 11.462 50.7039 11.802V13.192C50.7039 13.532 50.8006 13.7953 50.9939 13.982C51.1872 14.1686 51.4506 14.262 51.7839 14.262C52.1039 14.262 52.3539 14.1853 52.5339 14.032C52.7206 13.872 52.8239 13.6486 52.8439 13.362H54.0939C54.0739 13.9753 53.8572 14.462 53.4439 14.822C53.0306 15.1753 52.4772 15.352 51.7839 15.352ZM57.75 15.342C57.2833 15.342 56.8767 15.2553 56.53 15.082C56.19 14.902 55.9233 14.652 55.73 14.332C55.5433 14.0053 55.45 13.622 55.45 13.182V11.822C55.45 11.382 55.5433 11.002 55.73 10.682C55.9233 10.3553 56.19 10.1053 56.53 9.93195C56.8767 9.75195 57.2833 9.66195 57.75 9.66195C58.2233 9.66195 58.63 9.75195 58.97 9.93195C59.31 10.1053 59.5733 10.3553 59.76 10.682C59.9533 11.002 60.05 11.3786 60.05 11.812V13.182C60.05 13.622 59.9533 14.0053 59.76 14.332C59.5733 14.652 59.31 14.902 58.97 15.082C58.63 15.2553 58.2233 15.342 57.75 15.342ZM57.75 14.252C58.0833 14.252 58.34 14.162 58.52 13.982C58.7067 13.7953 58.8 13.5286 58.8 13.182V11.822C58.8 11.4686 58.7067 11.202 58.52 11.022C58.34 10.842 58.0833 10.752 57.75 10.752C57.4233 10.752 57.1667 10.842 56.98 11.022C56.7933 11.202 56.7 11.4686 56.7 11.822V13.182C56.7 13.5286 56.7933 13.7953 56.98 13.982C57.1667 14.162 57.4233 14.252 57.75 14.252ZM63.2761 15.352C62.7294 15.352 62.2861 15.162 61.9461 14.782C61.6128 14.402 61.4461 13.892 61.4461 13.252V11.762C61.4461 11.1153 61.6128 10.602 61.9461 10.222C62.2794 9.84195 62.7228 9.65195 63.2761 9.65195C63.7294 9.65195 64.0894 9.78195 64.3561 10.042C64.6228 10.2953 64.7561 10.6453 64.7561 11.092L64.4761 10.802H64.7661L64.7261 9.49195V7.95195H65.9761V15.252H64.7561V14.202H64.4761L64.7561 13.912C64.7561 14.3586 64.6228 14.712 64.3561 14.972C64.0894 15.2253 63.7294 15.352 63.2761 15.352ZM63.7161 14.272C64.0361 14.272 64.2828 14.1786 64.4561 13.992C64.6361 13.7986 64.7261 13.532 64.7261 13.192V11.812C64.7261 11.472 64.6361 11.2086 64.4561 11.022C64.2828 10.8286 64.0361 10.732 63.7161 10.732C63.3961 10.732 63.1461 10.8253 62.9661 11.012C62.7861 11.1986 62.6961 11.4653 62.6961 11.812V13.192C62.6961 13.5386 62.7861 13.8053 62.9661 13.992C63.1461 14.1786 63.3961 14.272 63.7161 14.272ZM67.5022 15.252V14.112H69.4222V10.882H67.7522V9.75195H70.6222V14.112H72.3222V15.252H67.5022ZM69.9222 8.83195C69.6689 8.83195 69.4689 8.76862 69.3222 8.64195C69.1755 8.50862 69.1022 8.33195 69.1022 8.11195C69.1022 7.89195 69.1755 7.71862 69.3222 7.59195C69.4689 7.45862 69.6689 7.39195 69.9222 7.39195C70.1755 7.39195 70.3755 7.45862 70.5222 7.59195C70.6689 7.71862 70.7422 7.89195 70.7422 8.11195C70.7422 8.33195 70.6689 8.50862 70.5222 8.64195C70.3755 8.76862 70.1755 8.83195 69.9222 8.83195ZM73.5083 15.252V9.75195H74.7283V10.802H75.0683L74.7283 11.092C74.7283 10.6386 74.8583 10.2853 75.1183 10.032C75.3849 9.77862 75.7483 9.65195 76.2083 9.65195C76.7483 9.65195 77.1783 9.83195 77.4983 10.192C77.8249 10.552 77.9883 11.0353 77.9883 11.642V15.252H76.7383V11.772C76.7383 11.4386 76.6516 11.182 76.4783 11.002C76.3049 10.822 76.0616 10.732 75.7483 10.732C75.4416 10.732 75.1983 10.8253 75.0183 11.012C74.8449 11.1986 74.7583 11.4653 74.7583 11.812V15.252H73.5083ZM80.2544 17.052V16.012H81.8844C82.1644 16.012 82.3744 15.942 82.5144 15.802C82.6544 15.6686 82.7244 15.4753 82.7244 15.222V14.812L82.7444 13.782H82.4744L82.7444 13.512C82.7444 13.9586 82.611 14.3086 82.3444 14.562C82.0844 14.8086 81.731 14.932 81.2844 14.932C80.7244 14.932 80.2777 14.742 79.9444 14.362C79.6177 13.982 79.4544 13.4686 79.4544 12.822V11.752C79.4544 11.112 79.6177 10.602 79.9444 10.222C80.2777 9.84195 80.7244 9.65195 81.2844 9.65195C81.731 9.65195 82.0844 9.77862 82.3444 10.032C82.611 10.2786 82.7444 10.6253 82.7444 11.072L82.4744 10.802H82.7444L82.7144 9.75195H83.9644V15.252C83.9644 15.8053 83.781 16.242 83.4144 16.562C83.0477 16.8886 82.5444 17.052 81.9044 17.052H80.2544ZM81.7044 13.852C82.0244 13.852 82.271 13.7586 82.4444 13.572C82.6244 13.3786 82.7144 13.112 82.7144 12.772V11.812C82.7144 11.472 82.6244 11.2086 82.4444 11.022C82.271 10.8286 82.0244 10.732 81.7044 10.732C81.3844 10.732 81.1377 10.8253 80.9644 11.012C80.791 11.1986 80.7044 11.4653 80.7044 11.812V12.772C80.7044 13.1186 80.791 13.3853 80.9644 13.572C81.1377 13.7586 81.3844 13.852 81.7044 13.852Z" fill="white"/>
<path d="M0 0.5H5.75269" stroke="white"/>
<path d="M0 23.0044H5.75269" stroke="white"/>
<path d="M2.88086 0.5L2.88086 23.0043" stroke="white"/>
</svg>
