<svg width="107" height="24" viewBox="0 0 107 24" fill="none" xmlns="http://www.w3.org/2000/svg">
<rect width="92" height="17" transform="translate(14.7739 3.25214)" fill="#F250DA"/>
<path d="M21.8139 15.3521C21.3473 15.3521 20.9373 15.2655 20.5839 15.0921C20.2373 14.9121 19.9673 14.6621 19.7739 14.3421C19.5873 14.0155 19.4939 13.6321 19.4939 13.1921V10.0121C19.4939 9.56547 19.5873 9.18214 19.7739 8.86214C19.9673 8.54214 20.2373 8.29547 20.5839 8.12214C20.9373 7.94214 21.3473 7.85214 21.8139 7.85214C22.2873 7.85214 22.6939 7.94214 23.0339 8.12214C23.3806 8.29547 23.6506 8.54214 23.8439 8.86214C24.0373 9.18214 24.1339 9.56547 24.1339 10.0121H22.8739C22.8739 9.66547 22.7806 9.40214 22.5939 9.22214C22.4139 9.04214 22.1539 8.95214 21.8139 8.95214C21.4739 8.95214 21.2106 9.04214 21.0239 9.22214C20.8373 9.40214 20.7439 9.66214 20.7439 10.0021V13.1921C20.7439 13.5321 20.8373 13.7955 21.0239 13.9821C21.2106 14.1621 21.4739 14.2521 21.8139 14.2521C22.1539 14.2521 22.4139 14.1621 22.5939 13.9821C22.7806 13.7955 22.8739 13.5321 22.8739 13.1921H24.1339C24.1339 13.6255 24.0373 14.0055 23.8439 14.3321C23.6506 14.6588 23.3806 14.9121 23.0339 15.0921C22.6939 15.2655 22.2873 15.3521 21.8139 15.3521ZM27.16 15.3521C26.5934 15.3521 26.1467 15.2021 25.82 14.9021C25.4934 14.6021 25.33 14.1988 25.33 13.6921C25.33 13.1521 25.51 12.7355 25.87 12.4421C26.23 12.1488 26.74 12.0021 27.4 12.0021H28.77V11.5321C28.77 11.2655 28.6834 11.0588 28.51 10.9121C28.3367 10.7588 28.1 10.6821 27.8 10.6821C27.5267 10.6821 27.3 10.7421 27.12 10.8621C26.94 10.9821 26.8334 11.1455 26.8 11.3521H25.58C25.64 10.8321 25.8734 10.4188 26.28 10.1121C26.6867 9.80547 27.2067 9.65214 27.84 9.65214C28.5134 9.65214 29.0434 9.82214 29.43 10.1621C29.8234 10.4955 30.02 10.9488 30.02 11.5221V15.2521H28.81V14.2921H28.61L28.81 14.0221C28.81 14.4288 28.66 14.7521 28.36 14.9921C28.06 15.2321 27.66 15.3521 27.16 15.3521ZM27.57 14.4121C27.9234 14.4121 28.21 14.3221 28.43 14.1421C28.6567 13.9621 28.77 13.7288 28.77 13.4421V12.7721H27.42C27.1667 12.7721 26.9634 12.8455 26.81 12.9921C26.6567 13.1388 26.58 13.3321 26.58 13.5721C26.58 13.8321 26.6667 14.0388 26.84 14.1921C27.02 14.3388 27.2634 14.4121 27.57 14.4121ZM31.5361 17.0521V9.75214H32.7561V10.8021H33.0361L32.7561 11.0921C32.7561 10.6455 32.8894 10.2955 33.1561 10.0421C33.4228 9.78214 33.7828 9.65214 34.2361 9.65214C34.7894 9.65214 35.2328 9.84214 35.5661 10.2221C35.8994 10.6021 36.0661 11.1121 36.0661 11.7521V13.2421C36.0661 13.6688 35.9894 14.0421 35.8361 14.3621C35.6894 14.6755 35.4794 14.9188 35.2061 15.0921C34.9328 15.2655 34.6094 15.3521 34.2361 15.3521C33.7828 15.3521 33.4228 15.2255 33.1561 14.9721C32.8894 14.7121 32.7561 14.3588 32.7561 13.9121L33.0361 14.2021H32.7461L32.7861 15.5121V17.0521H31.5361ZM33.7961 14.2721C34.1161 14.2721 34.3661 14.1788 34.5461 13.9921C34.7261 13.8055 34.8161 13.5388 34.8161 13.1921V11.8121C34.8161 11.4655 34.7261 11.1988 34.5461 11.0121C34.3661 10.8255 34.1161 10.7321 33.7961 10.7321C33.4828 10.7321 33.2361 10.8288 33.0561 11.0221C32.8761 11.2088 32.7861 11.4721 32.7861 11.8121V13.1921C32.7861 13.5321 32.8761 13.7988 33.0561 13.9921C33.2361 14.1788 33.4828 14.2721 33.7961 14.2721ZM37.5222 15.2521V14.1121H39.4422V10.8821H37.7722V9.75214H40.6422V14.1121H42.3422V15.2521H37.5222ZM39.9422 8.83214C39.6889 8.83214 39.4889 8.7688 39.3422 8.64214C39.1955 8.5088 39.1222 8.33214 39.1222 8.11214C39.1222 7.89214 39.1955 7.7188 39.3422 7.59214C39.4889 7.4588 39.6889 7.39214 39.9422 7.39214C40.1955 7.39214 40.3955 7.4588 40.5422 7.59214C40.6889 7.7188 40.7622 7.89214 40.7622 8.11214C40.7622 8.33214 40.6889 8.5088 40.5422 8.64214C40.3955 8.7688 40.1955 8.83214 39.9422 8.83214ZM46.3583 15.2521C45.8316 15.2521 45.4183 15.1055 45.1183 14.8121C44.825 14.5188 44.6783 14.1155 44.6783 13.6021V10.8821H43.1883V9.75214H44.6783V8.20214H45.9383V9.75214H48.0483V10.8821H45.9383V13.6021C45.9383 13.9488 46.1083 14.1221 46.4483 14.1221H47.9483V15.2521H46.3583ZM51.1444 15.3521C50.5777 15.3521 50.1311 15.2021 49.8044 14.9021C49.4777 14.6021 49.3144 14.1988 49.3144 13.6921C49.3144 13.1521 49.4944 12.7355 49.8544 12.4421C50.2144 12.1488 50.7244 12.0021 51.3844 12.0021H52.7544V11.5321C52.7544 11.2655 52.6677 11.0588 52.4944 10.9121C52.3211 10.7588 52.0844 10.6821 51.7844 10.6821C51.5111 10.6821 51.2844 10.7421 51.1044 10.8621C50.9244 10.9821 50.8177 11.1455 50.7844 11.3521H49.5644C49.6244 10.8321 49.8577 10.4188 50.2644 10.1121C50.6711 9.80547 51.1911 9.65214 51.8244 9.65214C52.4977 9.65214 53.0277 9.82214 53.4144 10.1621C53.8077 10.4955 54.0044 10.9488 54.0044 11.5221V15.2521H52.7944V14.2921H52.5944L52.7944 14.0221C52.7944 14.4288 52.6444 14.7521 52.3444 14.9921C52.0444 15.2321 51.6444 15.3521 51.1444 15.3521ZM51.5544 14.4121C51.9077 14.4121 52.1944 14.3221 52.4144 14.1421C52.6411 13.9621 52.7544 13.7288 52.7544 13.4421V12.7721H51.4044C51.1511 12.7721 50.9477 12.8455 50.7944 12.9921C50.6411 13.1388 50.5644 13.3321 50.5644 13.5721C50.5644 13.8321 50.6511 14.0388 50.8244 14.1921C51.0044 14.3388 51.2477 14.4121 51.5544 14.4121ZM58.5905 15.2521C58.2305 15.2521 57.9138 15.1788 57.6405 15.0321C57.3738 14.8855 57.1638 14.6788 57.0105 14.4121C56.8572 14.1388 56.7805 13.8255 56.7805 13.4721V9.08214H55.0205V7.95214H58.0305V13.4721C58.0305 13.6721 58.0872 13.8321 58.2005 13.9521C58.3205 14.0655 58.4805 14.1221 58.6805 14.1221H60.3405V15.2521H58.5905ZM61.5066 15.2521V14.1121H63.4266V10.8821H61.7566V9.75214H64.6266V14.1121H66.3266V15.2521H61.5066ZM63.9266 8.83214C63.6732 8.83214 63.4732 8.7688 63.3266 8.64214C63.1799 8.5088 63.1066 8.33214 63.1066 8.11214C63.1066 7.89214 63.1799 7.7188 63.3266 7.59214C63.4732 7.4588 63.6732 7.39214 63.9266 7.39214C64.1799 7.39214 64.3799 7.4588 64.5266 7.59214C64.6732 7.7188 64.7466 7.89214 64.7466 8.11214C64.7466 8.33214 64.6732 8.5088 64.5266 8.64214C64.3799 8.7688 64.1799 8.83214 63.9266 8.83214ZM67.5227 15.2521V14.1221L70.3927 10.8521H67.6127V9.75214H71.8527V10.8821L68.9527 14.1521H71.9627V15.2521H67.5227ZM75.1288 15.3521C74.5621 15.3521 74.1154 15.2021 73.7888 14.9021C73.4621 14.6021 73.2988 14.1988 73.2988 13.6921C73.2988 13.1521 73.4788 12.7355 73.8388 12.4421C74.1988 12.1488 74.7088 12.0021 75.3688 12.0021H76.7388V11.5321C76.7388 11.2655 76.6521 11.0588 76.4788 10.9121C76.3054 10.7588 76.0688 10.6821 75.7688 10.6821C75.4954 10.6821 75.2688 10.7421 75.0888 10.8621C74.9088 10.9821 74.8021 11.1455 74.7688 11.3521H73.5488C73.6088 10.8321 73.8421 10.4188 74.2488 10.1121C74.6554 9.80547 75.1754 9.65214 75.8088 9.65214C76.4821 9.65214 77.0121 9.82214 77.3988 10.1621C77.7921 10.4955 77.9888 10.9488 77.9888 11.5221V15.2521H76.7788V14.2921H76.5788L76.7788 14.0221C76.7788 14.4288 76.6288 14.7521 76.3288 14.9921C76.0288 15.2321 75.6288 15.3521 75.1288 15.3521ZM75.5388 14.4121C75.8921 14.4121 76.1788 14.3221 76.3988 14.1421C76.6254 13.9621 76.7388 13.7288 76.7388 13.4421V12.7721H75.3888C75.1354 12.7721 74.9321 12.8455 74.7788 12.9921C74.6254 13.1388 74.5488 13.3321 74.5488 13.5721C74.5488 13.8321 74.6354 14.0388 74.8088 14.1921C74.9888 14.3388 75.2321 14.4121 75.5388 14.4121ZM82.3349 15.2521C81.8082 15.2521 81.3949 15.1055 81.0949 14.8121C80.8015 14.5188 80.6549 14.1155 80.6549 13.6021V10.8821H79.1649V9.75214H80.6549V8.20214H81.9149V9.75214H84.0249V10.8821H81.9149V13.6021C81.9149 13.9488 82.0849 14.1221 82.4249 14.1221H83.9249V15.2521H82.3349ZM85.491 15.2521V14.1121H87.411V10.8821H85.741V9.75214H88.611V14.1121H90.311V15.2521H85.491ZM87.911 8.83214C87.6576 8.83214 87.4576 8.7688 87.311 8.64214C87.1643 8.5088 87.091 8.33214 87.091 8.11214C87.091 7.89214 87.1643 7.7188 87.311 7.59214C87.4576 7.4588 87.6576 7.39214 87.911 7.39214C88.1643 7.39214 88.3643 7.4588 88.511 7.59214C88.6576 7.7188 88.731 7.89214 88.731 8.11214C88.731 8.33214 88.6576 8.5088 88.511 8.64214C88.3643 8.7688 88.1643 8.83214 87.911 8.83214ZM93.7271 15.3421C93.2604 15.3421 92.8537 15.2555 92.5071 15.0821C92.1671 14.9021 91.9004 14.6521 91.7071 14.3321C91.5204 14.0055 91.4271 13.6221 91.4271 13.1821V11.8221C91.4271 11.3821 91.5204 11.0021 91.7071 10.6821C91.9004 10.3555 92.1671 10.1055 92.5071 9.93214C92.8537 9.75214 93.2604 9.66214 93.7271 9.66214C94.2004 9.66214 94.6071 9.75214 94.9471 9.93214C95.2871 10.1055 95.5504 10.3555 95.7371 10.6821C95.9304 11.0021 96.0271 11.3788 96.0271 11.8121V13.1821C96.0271 13.6221 95.9304 14.0055 95.7371 14.3321C95.5504 14.6521 95.2871 14.9021 94.9471 15.0821C94.6071 15.2555 94.2004 15.3421 93.7271 15.3421ZM93.7271 14.2521C94.0604 14.2521 94.3171 14.1621 94.4971 13.9821C94.6837 13.7955 94.7771 13.5288 94.7771 13.1821V11.8221C94.7771 11.4688 94.6837 11.2021 94.4971 11.0221C94.3171 10.8421 94.0604 10.7521 93.7271 10.7521C93.4004 10.7521 93.1437 10.8421 92.9571 11.0221C92.7704 11.2021 92.6771 11.4688 92.6771 11.8221V13.1821C92.6771 13.5288 92.7704 13.7955 92.9571 13.9821C93.1437 14.1621 93.4004 14.2521 93.7271 14.2521ZM97.4931 15.2521V9.75214H98.7131V10.8021H99.0531L98.7131 11.0921C98.7131 10.6388 98.8431 10.2855 99.1031 10.0321C99.3698 9.7788 99.7331 9.65214 100.193 9.65214C100.733 9.65214 101.163 9.83214 101.483 10.1921C101.81 10.5521 101.973 11.0355 101.973 11.6421V15.2521H100.723V11.7721C100.723 11.4388 100.636 11.1821 100.463 11.0021C100.29 10.8221 100.046 10.7321 99.7331 10.7321C99.4265 10.7321 99.1831 10.8255 99.0031 11.0121C98.8298 11.1988 98.7431 11.4655 98.7431 11.8121V15.2521H97.4931Z" fill="white"/>
<path d="M0 0.5H5.75269" stroke="white"/>
<path d="M0 23.0043H5.75269" stroke="white"/>
<path d="M2.88135 0.5L2.88135 23.0043" stroke="white"/>
</svg>
