<svg width="65" height="24" viewBox="0 0 65 24" fill="none" xmlns="http://www.w3.org/2000/svg">
<rect width="50" height="17" transform="translate(14.7734 3.25195)" fill="#57A2D8"/>
<path d="M21.8034 15.352C21.3368 15.352 20.9268 15.2653 20.5734 15.092C20.2268 14.912 19.9568 14.662 19.7634 14.342C19.5701 14.0153 19.4734 13.632 19.4734 13.192V11.812C19.4734 11.3653 19.5701 10.982 19.7634 10.662C19.9568 10.342 20.2268 10.0953 20.5734 9.92195C20.9268 9.74195 21.3368 9.65195 21.8034 9.65195C22.4968 9.65195 23.0501 9.83195 23.4634 10.192C23.8768 10.5453 24.0934 11.0286 24.1134 11.642H22.8634C22.8434 11.3553 22.7401 11.1353 22.5534 10.982C22.3734 10.822 22.1234 10.742 21.8034 10.742C21.4701 10.742 21.2068 10.8353 21.0134 11.022C20.8201 11.202 20.7234 11.462 20.7234 11.802V13.192C20.7234 13.532 20.8201 13.7953 21.0134 13.982C21.2068 14.1686 21.4701 14.262 21.8034 14.262C22.1234 14.262 22.3734 14.1853 22.5534 14.032C22.7401 13.872 22.8434 13.6486 22.8634 13.362H24.1134C24.0934 13.9753 23.8768 14.462 23.4634 14.822C23.0501 15.1753 22.4968 15.352 21.8034 15.352ZM27.7695 15.342C27.3029 15.342 26.8962 15.2553 26.5495 15.082C26.2095 14.902 25.9429 14.652 25.7495 14.332C25.5629 14.0053 25.4695 13.622 25.4695 13.182V11.822C25.4695 11.382 25.5629 11.002 25.7495 10.682C25.9429 10.3553 26.2095 10.1053 26.5495 9.93195C26.8962 9.75195 27.3029 9.66195 27.7695 9.66195C28.2429 9.66195 28.6495 9.75195 28.9895 9.93195C29.3295 10.1053 29.5929 10.3553 29.7795 10.682C29.9729 11.002 30.0695 11.3786 30.0695 11.812V13.182C30.0695 13.622 29.9729 14.0053 29.7795 14.332C29.5929 14.652 29.3295 14.902 28.9895 15.082C28.6495 15.2553 28.2429 15.342 27.7695 15.342ZM27.7695 14.252C28.1029 14.252 28.3595 14.162 28.5395 13.982C28.7262 13.7953 28.8195 13.5286 28.8195 13.182V11.822C28.8195 11.4686 28.7262 11.202 28.5395 11.022C28.3595 10.842 28.1029 10.752 27.7695 10.752C27.4429 10.752 27.1862 10.842 26.9995 11.022C26.8129 11.202 26.7195 11.4686 26.7195 11.822V13.182C26.7195 13.5286 26.8129 13.7953 26.9995 13.982C27.1862 14.162 27.4429 14.252 27.7695 14.252ZM31.5356 15.252V9.75195H32.7556V10.802H33.0956L32.7556 11.092C32.7556 10.6386 32.8856 10.2853 33.1456 10.032C33.4123 9.77862 33.7756 9.65195 34.2356 9.65195C34.7756 9.65195 35.2056 9.83195 35.5256 10.192C35.8523 10.552 36.0156 11.0353 36.0156 11.642V15.252H34.7656V11.772C34.7656 11.4386 34.679 11.182 34.5056 11.002C34.3323 10.822 34.089 10.732 33.7756 10.732C33.469 10.732 33.2256 10.8253 33.0456 11.012C32.8723 11.1986 32.7856 11.4653 32.7856 11.812V15.252H31.5356ZM40.3617 15.252C39.8351 15.252 39.4217 15.1053 39.1217 14.812C38.8284 14.5186 38.6817 14.1153 38.6817 13.602V10.882H37.1917V9.75195H38.6817V8.20195H39.9417V9.75195H42.0517V10.882H39.9417V13.602C39.9417 13.9486 40.1117 14.122 40.4517 14.122H41.9517V15.252H40.3617ZM45.7678 15.352C45.3011 15.352 44.8945 15.262 44.5478 15.082C44.2011 14.902 43.9311 14.652 43.7378 14.332C43.5511 14.0053 43.4578 13.6253 43.4578 13.192V11.812C43.4578 11.3786 43.5511 11.002 43.7378 10.682C43.9311 10.3553 44.2011 10.102 44.5478 9.92195C44.8945 9.74195 45.3011 9.65195 45.7678 9.65195C46.2278 9.65195 46.6278 9.74195 46.9678 9.92195C47.3145 10.102 47.5811 10.3553 47.7678 10.682C47.9611 11.002 48.0578 11.3786 48.0578 11.812V12.802H44.6678V13.192C44.6678 13.5786 44.7611 13.872 44.9478 14.072C45.1345 14.2653 45.4111 14.362 45.7778 14.362C46.0578 14.362 46.2845 14.3153 46.4578 14.222C46.6311 14.122 46.7411 13.9786 46.7878 13.792H48.0178C47.9245 14.2653 47.6711 14.6453 47.2578 14.932C46.8511 15.212 46.3545 15.352 45.7678 15.352ZM46.8478 12.102V11.802C46.8478 11.422 46.7578 11.132 46.5778 10.932C46.3978 10.7253 46.1278 10.622 45.7678 10.622C45.4078 10.622 45.1345 10.7253 44.9478 10.932C44.7611 11.1386 44.6678 11.432 44.6678 11.812V12.022L46.9378 12.002L46.8478 12.102ZM49.1139 15.252L51.0339 12.412L49.2439 9.75195H50.6539L51.5039 11.102C51.5572 11.182 51.6039 11.272 51.6439 11.372C51.6906 11.472 51.7272 11.552 51.7539 11.612C51.7806 11.552 51.8172 11.472 51.8639 11.372C51.9106 11.272 51.9572 11.182 52.0039 11.102L52.8639 9.75195H54.2739L52.4839 12.412L54.3939 15.252H52.9739L52.0239 13.742C51.9706 13.6553 51.9206 13.562 51.8739 13.462C51.8272 13.362 51.7872 13.282 51.7539 13.222C51.7272 13.282 51.6906 13.362 51.6439 13.462C51.5972 13.562 51.5472 13.6553 51.4939 13.742L50.5239 15.252H49.1139ZM58.35 15.252C57.8233 15.252 57.41 15.1053 57.11 14.812C56.8167 14.5186 56.67 14.1153 56.67 13.602V10.882H55.18V9.75195H56.67V8.20195H57.93V9.75195H60.04V10.882H57.93V13.602C57.93 13.9486 58.1 14.122 58.44 14.122H59.94V15.252H58.35Z" fill="white"/>
<path d="M0 0.5H5.75269" stroke="white"/>
<path d="M0 23.0044H5.75269" stroke="white"/>
<path d="M2.88086 0.5L2.88086 23.0043" stroke="white"/>
</svg>
