<svg width="59" height="24" viewBox="0 0 59 24" fill="none" xmlns="http://www.w3.org/2000/svg">
<rect width="44" height="17" transform="translate(14.7739 3.25214)" fill="#35B5FF"/>
<path d="M19.5439 15.2521V7.95214H21.9739C22.4606 7.95214 22.8839 8.04547 23.2439 8.23214C23.6106 8.4188 23.8939 8.68214 24.0939 9.02214C24.2939 9.35547 24.3939 9.7488 24.3939 10.2021C24.3939 10.6488 24.2906 11.0421 24.0839 11.3821C23.8839 11.7221 23.6039 11.9855 23.2439 12.1721C22.8839 12.3588 22.4606 12.4521 21.9739 12.4521H20.7939V15.2521H19.5439ZM20.7939 11.3221H21.9739C22.3206 11.3221 22.5973 11.2221 22.8039 11.0221C23.0173 10.8155 23.1239 10.5421 23.1239 10.2021C23.1239 9.85547 23.0173 9.58214 22.8039 9.38214C22.5973 9.18214 22.3206 9.08214 21.9739 9.08214H20.7939V11.3221ZM25.71 15.2521V9.75214H26.89V10.8021H27.2L26.83 11.4421C26.83 10.8488 26.9634 10.4021 27.23 10.1021C27.4967 9.80214 27.89 9.65214 28.41 9.65214C29.0034 9.65214 29.47 9.83547 29.81 10.2021C30.15 10.5688 30.32 11.0755 30.32 11.7221V12.1221H29.01V11.8121C29.01 11.4588 28.9167 11.1855 28.73 10.9921C28.55 10.7988 28.3 10.7021 27.98 10.7021C27.6534 10.7021 27.4 10.7988 27.22 10.9921C27.0467 11.1855 26.96 11.4588 26.96 11.8121V15.2521H25.71ZM33.7661 15.3421C33.2994 15.3421 32.8928 15.2555 32.5461 15.0821C32.2061 14.9021 31.9394 14.6521 31.7461 14.3321C31.5594 14.0055 31.4661 13.6221 31.4661 13.1821V11.8221C31.4661 11.3821 31.5594 11.0021 31.7461 10.6821C31.9394 10.3555 32.2061 10.1055 32.5461 9.93214C32.8928 9.75214 33.2994 9.66214 33.7661 9.66214C34.2394 9.66214 34.6461 9.75214 34.9861 9.93214C35.3261 10.1055 35.5894 10.3555 35.7761 10.6821C35.9694 11.0021 36.0661 11.3788 36.0661 11.8121V13.1821C36.0661 13.6221 35.9694 14.0055 35.7761 14.3321C35.5894 14.6521 35.3261 14.9021 34.9861 15.0821C34.6461 15.2555 34.2394 15.3421 33.7661 15.3421ZM33.7661 14.2521C34.0994 14.2521 34.3561 14.1621 34.5361 13.9821C34.7228 13.7955 34.8161 13.5288 34.8161 13.1821V11.8221C34.8161 11.4688 34.7228 11.2021 34.5361 11.0221C34.3561 10.8421 34.0994 10.7521 33.7661 10.7521C33.4394 10.7521 33.1828 10.8421 32.9961 11.0221C32.8094 11.2021 32.7161 11.4688 32.7161 11.8221V13.1821C32.7161 13.5288 32.8094 13.7955 32.9961 13.9821C33.1828 14.1621 33.4394 14.2521 33.7661 14.2521ZM37.2822 15.2521V9.75214H38.3022V10.4921H38.5122L38.3422 10.6721C38.3422 10.3655 38.4289 10.1188 38.6022 9.93214C38.7755 9.74547 38.9989 9.65214 39.2722 9.65214C39.5655 9.65214 39.7922 9.77214 39.9522 10.0121C40.1189 10.2521 40.2022 10.5755 40.2022 10.9821L39.9822 10.4921H40.3222L40.1922 10.6721C40.1922 10.3655 40.2789 10.1188 40.4522 9.93214C40.6255 9.74547 40.8555 9.65214 41.1422 9.65214C41.4822 9.65214 41.7522 9.7788 41.9522 10.0321C42.1522 10.2855 42.2522 10.6288 42.2522 11.0621V15.2521H41.1522V11.1121C41.1522 10.9321 41.1122 10.7921 41.0322 10.6921C40.9522 10.5855 40.8355 10.5321 40.6822 10.5321C40.5355 10.5321 40.4189 10.5821 40.3322 10.6821C40.2522 10.7821 40.2122 10.9255 40.2122 11.1121V15.2521H39.3122V11.1121C39.3122 10.9255 39.2722 10.7821 39.1922 10.6821C39.1122 10.5821 38.9955 10.5321 38.8422 10.5321C38.6889 10.5321 38.5722 10.5821 38.4922 10.6821C38.4189 10.7821 38.3822 10.9255 38.3822 11.1121V15.2521H37.2822ZM43.5283 17.0521V9.75214H44.7483V10.8021H45.0283L44.7483 11.0921C44.7483 10.6455 44.8816 10.2955 45.1483 10.0421C45.415 9.78214 45.775 9.65214 46.2283 9.65214C46.7816 9.65214 47.225 9.84214 47.5583 10.2221C47.8916 10.6021 48.0583 11.1121 48.0583 11.7521V13.2421C48.0583 13.6688 47.9816 14.0421 47.8283 14.3621C47.6816 14.6755 47.4716 14.9188 47.1983 15.0921C46.925 15.2655 46.6016 15.3521 46.2283 15.3521C45.775 15.3521 45.415 15.2255 45.1483 14.9721C44.8816 14.7121 44.7483 14.3588 44.7483 13.9121L45.0283 14.2021H44.7383L44.7783 15.5121V17.0521H43.5283ZM45.7883 14.2721C46.1083 14.2721 46.3583 14.1788 46.5383 13.9921C46.7183 13.8055 46.8083 13.5388 46.8083 13.1921V11.8121C46.8083 11.4655 46.7183 11.1988 46.5383 11.0121C46.3583 10.8255 46.1083 10.7321 45.7883 10.7321C45.475 10.7321 45.2283 10.8288 45.0483 11.0221C44.8683 11.2088 44.7783 11.4721 44.7783 11.8121V13.1921C44.7783 13.5321 44.8683 13.7988 45.0483 13.9921C45.2283 14.1788 45.475 14.2721 45.7883 14.2721ZM52.3544 15.2521C51.8277 15.2521 51.4144 15.1055 51.1144 14.8121C50.8211 14.5188 50.6744 14.1155 50.6744 13.6021V10.8821H49.1844V9.75214H50.6744V8.20214H51.9344V9.75214H54.0444V10.8821H51.9344V13.6021C51.9344 13.9488 52.1044 14.1221 52.4444 14.1221H53.9444V15.2521H52.3544Z" fill="white"/>
<path d="M0 0.5H5.75269" stroke="white"/>
<path d="M0 23.0043H5.75269" stroke="white"/>
<path d="M2.88135 0.5L2.88135 23.0043" stroke="white"/>
</svg>
