<svg width="31" height="35" viewBox="0 0 31 35" fill="none" xmlns="http://www.w3.org/2000/svg">
<g filter="url(#filter0_d_1613_60024)">
<path d="M10.4835 24.8824C9.85959 24.4324 8.94202 23.4147 7.52104 22.23C6.71662 21.5862 4.87705 20.4571 4.22115 19.7861C3.7756 19.3926 3.51047 18.8294 3.48991 18.2329C3.4227 17.1074 4.18948 16.1152 5.27981 15.9169C6.14535 15.8371 7.01754 16.0174 7.78812 16.4355C8.3197 16.7061 8.82863 17.021 9.30963 17.3769C9.66332 17.6247 9.7665 17.7355 10.1669 18.0224C10.5672 18.3094 10.8718 18.6254 10.561 18.1161C10.2033 17.3371 9.59865 16.0296 8.95847 14.8925C8.47066 14.0287 8.37852 13.8969 7.97552 13.2558C7.57253 12.6147 7.28375 12.0633 6.83529 11.3296C6.40886 10.6043 6.02 9.85726 5.67034 9.09141C5.16015 8.13092 4.98552 7.02597 5.17521 5.95854C5.57107 5.25563 6.34624 4.86715 7.14135 4.97322C8.00442 5.28935 8.75208 5.86926 9.28073 6.63261C10.0139 7.54708 10.6239 8.55612 11.0943 9.63269C11.8415 11.181 13.0543 13.4047 13.2178 13.8875C13.0358 13.2861 12.5404 12.0519 12.48 11.4492C12.4112 10.8225 12.6669 10.2078 13.1555 9.82519C13.5858 9.53286 14.0784 9.34735 14.594 9.28345C15.1206 9.23911 15.6466 9.3964 16.0687 9.72445C16.7253 10.5609 17.2351 11.5054 17.5752 12.5158C17.3476 11.6097 17.2301 10.6799 17.2251 9.74715C17.3759 9.28372 17.6818 8.88994 18.09 8.63371C18.5878 8.37583 19.1284 8.21224 19.6856 8.15087C20.1628 8.1673 20.6253 8.33059 21.0117 8.61907C21.6105 9.37894 22.0905 10.2274 22.4346 11.1341C22.5035 11.3616 22.3545 10.4663 22.5334 9.7911C22.5488 9.18418 22.8821 8.63507 23.4075 8.35064C23.933 8.0662 24.5708 8.08964 25.0808 8.41212C25.5908 8.73461 25.8954 9.30715 25.8799 9.91408C26.1997 10.9707 26.1849 10.9219 26.4013 11.6372C26.6178 12.3525 26.8096 12.9864 26.9916 13.5879C27.2213 14.5567 27.3794 15.541 27.4645 16.5323C27.4363 17.4407 27.2864 18.3397 27.0191 19.2045C26.5099 20.3167 26.1699 21.5024 26.0106 22.7214C26.0517 23.2906 26.1634 23.853 26.3429 24.3953C26.4941 24.9007 26.7107 25.3841 26.9869 25.8329C26.3558 26.1005 25.6979 26.2996 25.0242 26.4267C24.3724 26.5175 23.2228 25.4813 22.8973 25.154C22.7313 24.9755 22.4812 24.9067 22.2514 24.9763C22.0216 25.0458 21.8515 25.2417 21.8123 25.4823C21.6482 26.2062 21.2057 27.5645 20.6828 27.7937C19.6531 28.2472 17.4117 28.7835 15.6725 29.3098C15.6725 29.3098 15.4678 27.5973 14.6365 27.21C13.8052 26.8228 12.9284 26.3429 12.296 26.0374L10.4835 24.8824Z" fill="white"/>
<path fill-rule="evenodd" clip-rule="evenodd" d="M10.4835 24.8824C9.85959 24.4324 8.94202 23.4147 7.52104 22.23C6.71662 21.5862 4.87705 20.4571 4.22115 19.7861C3.7756 19.3926 3.51047 18.8294 3.48991 18.2329C3.4227 17.1074 4.18948 16.1152 5.27981 15.9169C6.14535 15.8371 7.01754 16.0174 7.78812 16.4355C8.3197 16.7061 8.82863 17.021 9.30963 17.3769C9.66332 17.6247 9.7665 17.7355 10.1669 18.0224C10.5672 18.3094 10.8718 18.6254 10.561 18.1161C10.2033 17.3371 9.59865 16.0296 8.95847 14.8925C8.47066 14.0287 8.37852 13.8969 7.97552 13.2558C7.57253 12.6147 7.28375 12.0633 6.83529 11.3296C6.40886 10.6043 6.02 9.85726 5.67034 9.09141C5.16015 8.13092 4.98552 7.02597 5.17521 5.95854C5.57107 5.25563 6.34624 4.86715 7.14135 4.97322C8.00442 5.28935 8.75208 5.86926 9.28073 6.63261C10.0139 7.54708 10.6239 8.55612 11.0943 9.63269C11.8415 11.181 13.0543 13.4047 13.2178 13.8875C13.0358 13.2861 12.5404 12.0519 12.48 11.4492C12.4112 10.8225 12.6669 10.2078 13.1555 9.82519C13.5858 9.53286 14.0784 9.34735 14.594 9.28345C15.1206 9.23911 15.6466 9.3964 16.0687 9.72445C16.7253 10.5609 17.2351 11.5054 17.5752 12.5158C17.3476 11.6097 17.2301 10.6799 17.2251 9.74715C17.3759 9.28372 17.6818 8.88994 18.09 8.63371C18.5878 8.37583 19.1284 8.21224 19.6856 8.15087C20.1628 8.1673 20.6253 8.33059 21.0117 8.61907C21.6105 9.37894 22.0905 10.2274 22.4346 11.1341C22.5035 11.3616 22.3545 10.4663 22.5334 9.7911C22.5488 9.18418 22.8821 8.63507 23.4075 8.35064C23.933 8.0662 24.5708 8.08964 25.0808 8.41212C25.5908 8.73461 25.8954 9.30715 25.8799 9.91408C26.1997 10.9707 26.1849 10.9219 26.4013 11.6372C26.6178 12.3525 26.8096 12.9864 26.9916 13.5879C27.2213 14.5567 27.3794 15.541 27.4645 16.5323C27.4363 17.4407 27.2864 18.3397 27.0191 19.2045C26.5099 20.3167 26.1699 21.5024 26.0106 22.7214C26.0517 23.2906 26.1634 23.853 26.3429 24.3953C26.4941 24.9007 26.7107 25.3841 26.9869 25.8329C26.3558 26.1005 25.6979 26.2996 25.0242 26.4267C24.3724 26.5175 23.2228 25.4813 22.8973 25.154C22.7313 24.9755 22.4812 24.9067 22.2514 24.9763C22.0216 25.0458 21.8515 25.2417 21.8123 25.4823C21.6482 26.2062 21.2057 27.5645 20.6828 27.7937C19.6531 28.2472 17.4117 28.7835 15.6725 29.3098C15.6725 29.3098 15.4678 27.5973 14.6365 27.21C13.8052 26.8228 12.9284 26.3429 12.296 26.0374L10.4835 24.8824Z" stroke="#0A090B" stroke-width="0.75" stroke-linecap="round" stroke-linejoin="round"/>
<path d="M24.2832 21.6753L22.5853 16.0641C22.4837 15.7283 22.1334 15.5371 21.8029 15.6371C21.4724 15.7371 21.2869 16.0904 21.3886 16.4263L23.0865 22.0374C23.1881 22.3733 23.5384 22.5645 23.8689 22.4645C24.1993 22.3645 24.3848 22.0112 24.2832 21.6753Z" fill="#0A090B"/>
<path d="M21.1231 22.6293L19.3924 17.0249C19.2892 16.6904 18.938 16.5019 18.6081 16.6038C18.2782 16.7057 18.0945 17.0595 18.1978 17.394L19.9285 22.9984C20.0318 23.3329 20.383 23.5214 20.7129 23.4195C21.0427 23.3176 21.2264 22.9638 21.1231 22.6293Z" fill="#0A090B"/>
<path d="M15.0083 18.3656L16.7355 23.9583C16.8397 24.296 17.1917 24.4871 17.5216 24.3851C17.8514 24.2832 18.0343 23.9268 17.93 23.5891L16.2028 17.9963C16.0985 17.6586 15.7466 17.4675 15.4167 17.5695C15.0869 17.6715 14.904 18.0279 15.0083 18.3656Z" fill="#0A090B"/>
</g>
<defs>
<filter id="filter0_d_1613_60024" x="-3" y="-0.999993" width="36.5016" height="37.8367" filterUnits="userSpaceOnUse" color-interpolation-filters="sRGB">
<feFlood flood-opacity="0" result="BackgroundImageFix"/>
<feColorMatrix in="SourceAlpha" type="matrix" values="0 0 0 0 0 0 0 0 0 0 0 0 0 0 0 0 0 0 127 0" result="hardAlpha"/>
<feOffset dy="2"/>
<feGaussianBlur stdDeviation="1.5"/>
<feColorMatrix type="matrix" values="0 0 0 0 0 0 0 0 0 0 0 0 0 0 0 0 0 0 0.5 0"/>
<feBlend mode="normal" in2="BackgroundImageFix" result="effect1_dropShadow_1613_60024"/>
<feBlend mode="normal" in="SourceGraphic" in2="effect1_dropShadow_1613_60024" result="shape"/>
</filter>
</defs>
</svg>
